<?xml version="1.0" encoding="UTF-8"?>
<svg id="Calque_1" data-name="Calque 1" xmlns="http://www.w3.org/2000/svg" version="1.1" viewBox="0 0 699 809">
  <defs>
    <style>
      .cls-1 {
        fill: #000;
        stroke-width: 0px;
      }
    </style>
  </defs>
  <path class="cls-1" d="M340.93,344.97c11.13-.95,22.18-2.07,32.87-5.96,19.05-6.94,38.13-13.87,57.47-19.9,13.78-4.29,28.08-6.15,42.61-3.53,7.89,1.42,14.64,5.17,20.09,10.79,5.19,5.35,7.06,12.07,4.04,19.24-1.5,3.57-3.64,7.02-6.08,10.04-12.11,14.99-28.03,21.7-47.16,20.53-8.6-.53-17.14-1.88-25.73-2.69-5.41-.51-10.86-1.11-16.27-.92-9.2.32-16.89,4.01-22.78,11.39-7.01,8.76-11.5,18.85-15.73,29.06-4.19,10.1-6.61,20.71-8.56,31.48-2.62,14.45-5.97,28.77-8.83,43.18-3.71,18.71-7.15,37.47-10.86,56.18-4.07,20.51-11.16,39.95-21.62,58.08-2.34,4.05-5.21,7.8-7.94,11.6-8.41,11.71-17.95,22.49-28.44,32.32-6.39,5.99-13.87,10.61-21.43,15.15-6.73,4.04-13.84,6.06-21.3,7.22-10.32,1.6-19.91-.51-28.19-7.16-1.49-1.2-2.75-2.86-3.7-4.55-4.83-8.66-6.34-17.89-4.37-27.65,1.57-7.76,3.95-15.25,7.67-22.25,7.81-14.69,14.92-29.79,25.05-43.15,6.59-8.68,13.15-17.4,19.58-26.2,8.48-11.61,16.74-23.39,25.26-34.98,8.52-11.59,17.23-23.04,25.87-34.54,6.27-8.35,12.58-16.67,18.85-25.02,8.83-11.74,17.7-23.46,26.45-35.26,3.96-5.34,7.78-10.78,11.47-16.31,1.07-1.59,1.7-3.57,2.15-5.46,1.7-7.24-1.92-13.71-9.02-16.09-8.08-2.71-16.18-1.74-24.19.37-15.68,4.14-29.25,12.21-41.62,22.52-4.06,3.39-8.21,6.73-12.61,9.65-5.23,3.47-10.99,5.73-17.48,5.53-7.34-.22-13.64-4.88-15.45-11.8-1.45-5.54.18-10.47,3.73-14.81,4.9-5.99,11.58-9.23,18.68-11.56,7.32-2.41,14.88-4.12,22.19-6.56,4.12-1.37,8.23-3.16,11.85-5.52,4.52-2.95,5.51-7.83,3.34-12.81-.72-1.65-1.49-3.45-2.73-4.68-8.63-8.57-18.15-14.81-31.19-10.92-2.17.65-4.47.89-6.62,1.6-10.49,3.48-20.1,1.38-28.83-4.86-9.5-6.79-16.17-15.57-16.88-27.72-.57-9.78,1.96-18.94,6.65-27.47,6.56-11.92,16.7-19.75,28.98-25.13,4.19-1.84,8.52-2.07,12.92-1.43,5.9.86,10.13,5.56,10.11,11.55-.01,2.98-.67,5.98-1.23,8.94-1.38,7.28-3.07,14.5-4.26,21.81-.91,5.57.67,10.95,3.17,15.82,3.93,7.66,14.23,13.38,23.31,4.24,3-3.01,5.22-6.48,6.51-10.73,3.99-13.18,8.51-26.22,14.37-38.67,5.22-11.11,12.21-21.23,19.66-31,17.24-22.62,39.17-39.78,62.98-54.92,13.79-8.77,28.61-15.14,43.86-20.61,7.09-2.54,14.36-4.85,21.75-6.19,13.98-2.53,27.72-1.39,40.71,5.05,8.18,4.05,14.13,10.44,18.31,18.31,8.13,15.29,8.14,31.31,3.21,47.55-3.4,11.19-10.5,20.06-18.49,28.22-8.5,8.68-14.29,13.4-24.42,20.1-6.42,4.25-17.5,9.24-24.79,11.15-10.38,2.71-20.89,4.95-31.4,7.14-16.3,3.39-32.66,6.47-48.96,9.88-9.02,1.89-18.08,3.76-26.9,6.39-12.91,3.84-24.34,10.1-31.01,22.66-2.59,4.87-3.69,9.68-1.12,15.15,1.7,3.61,3.98,5.95,7.68,7.07,4.81,1.45,9.66,2.62,14.77,2.04Z"/>
  <path class="cls-1" d="M352.21,670.65c-139.03,0-273.06-99.37-273.06-238.92S213.18,164.48,352.21,164.48s273.61,113.53,273.61,253.08-134.58,253.08-273.61,253.08ZM352.21,166.38c-137.98,0-250.24,112.68-250.24,251.18s112.26,251.18,250.24,251.18,250.24-112.68,250.24-251.18-112.26-251.18-250.24-251.18Z"/>
</svg>